#N canvas 0 0 949 1009 12;
#X obj 438 235 osc~ 200;
#X obj 439 323 *~ 0.5;
#X obj 442 384 dac~;
#X obj 464 116 hsl 170 20 0 127 0 0 empty empty empty -2 -10 0 12 #fcfcfc #000000 #000000 0 1;
#X floatatom 461 141 5 0 0 0 - - - 0;
#X obj 461 165 mtof;
#X floatatom 461 190 5 0 0 0 - - - 0;
#X obj 397 211 +~;
#X obj 416 41 hsl 170 20 0 127 0 0 empty empty empty -2 -10 0 12 #fcfcfc #000000 #000000 0 1;
#X floatatom 413 66 5 0 0 0 - - - 0;
#X obj 413 90 mtof;
#X floatatom 413 115 5 0 0 0 - - - 0;
#X obj 397 152 *~;
#X obj 172 241 osc~ 200;
#X obj 198 122 hsl 170 20 0 127 0 0 empty empty empty -2 -10 0 12 #fcfcfc #000000 #000000 0 1;
#X floatatom 195 147 5 0 0 0 - - - 0;
#X obj 195 171 mtof;
#X floatatom 195 196 5 0 0 0 - - - 0;
#X obj 131 217 +~;
#X obj 150 47 hsl 170 20 0 127 0 0 empty empty empty -2 -10 0 12 #fcfcfc #000000 #000000 0 1;
#X floatatom 147 72 5 0 0 0 - - - 0;
#X obj 147 96 mtof;
#X floatatom 147 121 5 0 0 0 - - - 0;
#X obj 131 158 *~;
#X obj 474 271 send~ feedback;
#X obj 130 10 receive~ feedback;
#X connect 0 0 1 0;
#X connect 0 0 24 0;
#X connect 1 0 2 0;
#X connect 1 0 2 1;
#X connect 3 0 4 0;
#X connect 4 0 5 0;
#X connect 5 0 6 0;
#X connect 6 0 7 1;
#X connect 7 0 0 0;
#X connect 8 0 9 0;
#X connect 9 0 10 0;
#X connect 10 0 11 0;
#X connect 11 0 12 1;
#X connect 12 0 7 0;
#X connect 13 0 12 0;
#X connect 14 0 15 0;
#X connect 15 0 16 0;
#X connect 16 0 17 0;
#X connect 17 0 18 1;
#X connect 18 0 13 0;
#X connect 19 0 20 0;
#X connect 20 0 21 0;
#X connect 21 0 22 0;
#X connect 22 0 23 1;
#X connect 23 0 18 0;
#X connect 25 0 23 0;
