#N canvas 1277 34 632 1001 12;
#N canvas 0 50 450 250 (subpatch) 0;
#X array databend 175876 float 2;
#A color 0;
#A width 2;
#X coords 0 1 175876 -1 200 140 1;
#X restore 592 440 graph;
#X obj 562 497 bng 20 250 50 0 empty empty empty 0 -10 0 12 #e3c6ff #000000 #000000;
#X obj 902 195 openpanel;
#X msg 904 237 read -resize -raw 0 1 2 n \$1 databend;
#X obj 486 826 bng 20 250 50 0 empty empty Hit 0 -10 0 12 #fcfcfc #000000 #000000;
#X obj 1121 783 tabplay~ databend;
#X obj 904 285 soundfiler;
#X obj 487 787 tgl 20 0 empty empty On/Off 0 -10 0 12 #fcfcfc #000000 #000000 0 1;
#N canvas 0 0 472 1009 (subpatch) 0;
#X array sound 534744 float 2;
#A color 0;
#A width 2;
#X coords 0 1 534744 -1 200 140 1 0 0;
#X restore 594 283 graph;
#X obj 551 346 bng 20 250 50 0 empty empty empty 0 -10 0 12 #e3c6ff #000000 #000000;
#X obj 919 425 openpanel;
#X obj 918 508 soundfiler;
#X msg 918 460 read -resize -raw 0 1 2 n \$1 sound;
#X obj 1036 947 tabplay~ sound;
#X obj 83 956 metro 1 5 sec;
#X obj 483 119 adc~;
#X msg 62 898 tempo \$1 permin;
#X obj 148 198 input_trigger;
#X obj 375 749 hsl 100 20 20 2000 0 0 empty empty Databend\ BPM -2 -10 0 12 #fcfcfc #000000 #000000 0 1;
#X obj 30 335 drum_sequencer;
#N canvas 1435 34 474 1001 tapedelay 0;
#X obj 214 531 *~;
#X obj 274 562 delwrite~ \$0-flemback 1000;
#X obj 213 733 *~;
#X obj 213 758 clip~ 0 1;
#X obj 211 800 outlet~;
#X obj 121 314 hsl 170 20 0 127 0 0 empty empty VOL -2 -10 0 12 #fcfcfc #000000 #000000 0 1;
#X obj 121 203 hsl 170 20 0 127 0 0 empty empty TIME -2 -10 0 12 #fcfcfc #000000 #000000 0 1;
#X obj 122 263 hsl 170 20 0 127 0 0 empty empty FEEDBACK -2 -10 0 12 #fcfcfc #000000 #000000 0 1;
#X obj 295 606 delread~ \$0-flemback 100;
#X obj 295 631 *~;
#X floatatom 251 447 5 0 0 0 - - - 0;
#X obj 211 489 osc~;
#X obj 123 138 hsl 170 20 20 1270 0 0 empty empty FREQ -2 -10 0 12 #fcfcfc #000000 #000000 0 1;
#X obj 127 492 inlet~;
#X connect 0 0 1 0;
#X connect 0 0 2 0;
#X connect 2 0 3 0;
#X connect 3 0 4 0;
#X connect 5 0 2 1;
#X connect 5 0 0 1;
#X connect 6 0 8 0;
#X connect 7 0 9 1;
#X connect 8 0 9 0;
#X connect 9 0 2 0;
#X connect 9 0 1 0;
#X connect 10 0 11 0;
#X connect 11 0 0 0;
#X connect 12 0 10 0;
#X connect 13 0 0 0;
#X coords 0 -1 1 1 200 300 1 100 100;
#X restore 165 543 pd tapedelay;
#N canvas 1441 1114 375 1001 reverb 0;
#X obj 78 590 freeverb~, f 12;
#X obj 111 144 hsl 170 20 0.11 1.1 0 0 empty empty SIZE -2 -10 0 12 #fcfcfc #000000 #000000 0 1;
#X msg 254 505 roomsize \$1;
#X floatatom 295 456 5 0 0 0 - - - 0;
#X obj 112 181 hsl 170 20 0 1 0 0 empty empty WET -2 -10 0 12 #fcfcfc #000000 #000000 0 1;
#X floatatom 317 549 5 0 0 0 - - - 0;
#X msg 252 594 wet \$1;
#X obj 113 220 hsl 170 20 0 1 0 0 empty empty DRY -2 -10 0 12 #fcfcfc #000000 #000000 0 1;
#X floatatom 296 629 5 0 0 0 - - - 0;
#X msg 247 676 dry \$1;
#X obj 114 259 hsl 170 20 0.11 1.1 0 0 empty empty DAMP -2 -10 0 12 #fcfcfc #000000 #000000 0 1;
#X floatatom 299 703 5 0 0 0 - - - 0;
#X msg 253 753 damping \$1;
#X obj 113 313 tgl 30 0 empty empty FREEZE 0 -10 0 20 #fcfcfc #000000 #000000 0 1;
#X msg 223 803 freeze \$1;
#X obj 42 465 inlet~;
#X obj 115 466 inlet~;
#X obj 54 692 outlet~;
#X obj 122 694 outlet~;
#X connect 0 0 17 0;
#X connect 0 1 18 0;
#X connect 1 0 2 0;
#X connect 1 0 3 0;
#X connect 2 0 0 0;
#X connect 4 0 6 0;
#X connect 4 0 5 0;
#X connect 6 0 0 0;
#X connect 7 0 9 0;
#X connect 7 0 8 0;
#X connect 9 0 0 0;
#X connect 10 0 12 0;
#X connect 10 0 11 0;
#X connect 12 0 0 0;
#X connect 13 0 14 0;
#X connect 14 0 0 0;
#X connect 15 0 0 0;
#X connect 16 1 0 1;
#X coords 0 -1 1 1 200 250 1 100 100;
#X restore 592 587 pd reverb;
#N canvas 1442 5 469 1009 complexOsc 0;
#X text 437 625 feedback to FModulate osc 1;
#X obj 306 581 osc~ 200;
#X obj 307 669 *~ 0.5;
#X obj 112 271 hsl 170 20 0 127 0 0 empty empty empty -2 -10 0 12 #fcfcfc #000000 #000000 0 1;
#X floatatom 329 487 5 0 0 0 - - - 0;
#X obj 329 511 mtof;
#X floatatom 329 536 5 0 0 0 - - - 0;
#X obj 265 557 +~;
#X obj 112 238 hsl 170 20 0 127 0 0 empty empty empty -2 -10 0 12 #fcfcfc #000000 #000000 0 1;
#X floatatom 281 412 5 0 0 0 - - - 0;
#X obj 281 436 mtof;
#X floatatom 281 461 5 0 0 0 - - - 0;
#X obj 265 498 *~;
#X obj 40 587 osc~ 200;
#X obj 113 198 hsl 170 20 0 127 0 0 empty empty empty -2 -10 0 12 #fcfcfc #000000 #000000 0 1;
#X floatatom 63 493 5 0 0 0 - - - 0;
#X obj 63 517 mtof;
#X floatatom 63 542 5 0 0 0 - - - 0;
#X obj -1 563 +~;
#X obj 113 150 hsl 170 20 0 127 0 0 empty empty empty -2 -10 0 12 #fcfcfc #000000 #000000 0 1;
#X floatatom 15 418 5 0 0 0 - - - 0;
#X obj 15 442 mtof;
#X floatatom 15 467 5 0 0 0 - - - 0;
#X obj -1 504 *~;
#X obj 342 617 send~ fedback;
#X obj -2 356 receive~ fedback;
#X obj 224 731 outlet~;
#X obj 346 740 outlet~;
#X connect 1 0 2 0;
#X connect 1 0 24 0;
#X connect 2 0 27 0;
#X connect 2 0 26 0;
#X connect 3 0 4 0;
#X connect 4 0 5 0;
#X connect 5 0 6 0;
#X connect 6 0 7 1;
#X connect 7 0 1 0;
#X connect 8 0 9 0;
#X connect 9 0 10 0;
#X connect 10 0 11 0;
#X connect 11 0 12 1;
#X connect 12 0 7 0;
#X connect 13 0 12 0;
#X connect 14 0 15 0;
#X connect 15 0 16 0;
#X connect 16 0 17 0;
#X connect 17 0 18 1;
#X connect 18 0 13 0;
#X connect 19 0 20 0;
#X connect 20 0 21 0;
#X connect 21 0 22 0;
#X connect 22 0 23 1;
#X connect 23 0 18 0;
#X connect 25 0 23 0;
#X coords 0 -1 1 1 200 200 1 100 100;
#X restore 382 531 pd complexOsc;
#X obj 372 785 output~;
#N canvas 1600 0 468 1001 wavefolder 0;
#X obj 83 309 inlet~;
#X obj 83 334 *~;
#X obj 288 225 hsl 170 20 1 127 0 0 empty empty empty -2 -10 0 12 #fcfcfc #000000 #000000 0 1;
#X obj 83 359 expr~ if($v1 > 1 \, 2-$v1 \, $v1);
#X obj 83 384 expr~ if($v1 < -1 \, -2-$v1 \, $v1);
#X obj 82 414 expr~ if($v1 > 1 \, 2-$v1 \, $v1);
#X obj 82 439 expr~ if($v1 < -1 \, -2-$v1 \, $v1);
#N canvas 0 50 450 250 (subpatch) 0;
#X array \$0-display 100 float 1;
#A 0 -0.00022769 0.000415802 0.000788569 0.00107193 -3.62396e-05 0.00148964 -0.000405312 0.000785828 -0.000479698 0.000450611 -6.62804e-05 0.00118434 -0.000551224 0.00118089 0.0004915 0.000131607 0.000251293 0.00037384 6.50883e-05 0.00136423 0.000235081 0.000539064 -0.000418901 0.0018425 -0.000103235 0.000358701 -0.000780582 0.000336409 0.000166178 0.00036025 0.000296354 -0.000174046 0.00010407 0.00114381 0.000191569 0.00107157 0.000216126 0.00114489 0.00105417 0.000438809 0.000913858 0.000921965 0.000502706 0.000607729 0.000464559 0.000683546 0.000499487 0.0012064 0.000223517 0.00121391 1.72853e-05 0.000421286 0.000132203 0.000518799 0.000765562 -0.000286102 0.000596523 -9.87053e-05 2.46763e-05 0.000529289 0.000474453 0.000414371 0.000256181 0.000812411 0.000331998 0.000656962 -3.8147e-06 -0.000312328 0.00162077 0.000125289 0.00149584 0.00104201 0.00039351 -0.000155449 0.00109565 0.000779152 0.000647426 0.000527024 0.000691533 0.000443935 0.00141537 0.00168002 0.000562668 0.000969291 0.00130475 0.00181043 0.0013237 0.00193334 0.000721693 0.000982404 0.00116181 0.00170255 0.00027597 0.000712514 -0.000345469 0.000767708 0.000632286 0.00238562 0.000331402 0.00109959;
#A color 0;
#A width 1;
#X coords 0 1 99 -1 200 140 1;
#X restore 275 81 graph;
#X floatatom 253 257 5 0 0 0 - - - 0;
#X obj 106 506 *~;
#X obj 75 549 outlet~;
#X obj 133 550 outlet~;
#X obj 472 232 tgl 20 0 empty empty empty 0 -10 0 12 #fcfcfc #000000 #000000 0 1;
#X obj 233 506 metro 100;
#X obj 233 531 tabwrite~ \$0-display;
#X obj 302 257 hsl 170 20 5 127 0 0 empty empty empty -2 -10 0 12 #fcfcfc #000000 #000000 0 1;
#X connect 0 0 1 0;
#X connect 1 0 3 0;
#X connect 2 0 1 1;
#X connect 3 0 4 0;
#X connect 4 0 5 0;
#X connect 5 0 6 0;
#X connect 6 0 9 0;
#X connect 6 0 14 0;
#X connect 8 0 9 1;
#X connect 9 0 10 0;
#X connect 9 0 11 0;
#X connect 12 0 13 0;
#X connect 13 0 14 0;
#X connect 15 0 8 0;
#X coords 0 -1 1 1 250 250 1 250 30;
#X restore 275 276 pd wavefolder;
#X floatatom 904 314 5 0 0 0 - - - 0;
#X floatatom 918 533 5 0 0 0 - - - 0;
#X obj 1026 888 \$1 22000;
#X obj 539 992 random 0;
#X obj 638 880 *~ 30;
#X obj 241 486 tgl 20 0 empty empty ??? 0 -10 0 12 #fcfcfc #000000 #000000 0 1;
#X obj 56 560 bng 20 250 50 0 empty empty empty 0 -10 0 12 #fcfcfc #000000 #000000;
#X floatatom 229 507 5 0 500 0 - - - 0;
#X obj 58 527 metro;
#X obj 56 610 line~;
#X obj 56 635 sqrt~;
#X obj 54 717 cos~;
#X obj 56 685 +~ -1 1;
#X msg 56 585 0 \, 1 200;
#X obj 56 660 *~ 20;
#X obj 638 930 dac~;
#X obj 638 905 expr~ tanh($v1);
#X obj 247 408 vsl 20 50 0 500 0 0 empty empty ??? 0 -9 0 12 #fcfcfc #000000 #000000 0 1;
#X floatatom 552 823 5 0 0 0 - - - 0;
#X obj 517 825 bng 20 250 50 0 empty empty Hit 0 -10 0 12 #fcfcfc #000000 #000000;
#X obj 531 787 tgl 20 0 empty empty On/Off 0 -10 0 12 #fcfcfc #000000 #000000 0 1;
#X obj 483 750 hsl 100 20 20 2000 0 0 empty empty Databend\ BPM -2 -10 0 12 #fcfcfc #000000 #000000 0 1;
#X floatatom 551 798 5 0 0 0 - - - 0;
#X obj 394 982 random 0;
#X obj 254 983 metro 1 5 sec;
#X msg 247 926 tempo \$1 permins;
#X obj 1125 742 \$1 44000;
#X obj 55 132 bng 20 250 50 0 empty empty empty 0 -10 0 12 #fcfcfc #000000 #000000;
#X obj 57 99 metro;
#X obj 55 182 line~;
#X obj 55 207 sqrt~;
#X obj 53 289 cos~;
#X obj 55 257 +~ -1 1;
#X msg 55 157 0 \, 1 200;
#X obj 55 232 *~ 20;
#X obj 166 309 tgl 20 0 empty empty KICK 0 -10 0 12 #fcfcfc #000000 #000000 0 1;
#X floatatom 172 432 5 0 500 0 - - - 0;
#X obj 202 281 vsl 20 100 0 500 0 0 empty empty BPM 0 -9 0 12 #fcfcfc #000000 #000000 0 1;
#X connect 1 0 2 0;
#X connect 2 0 3 0;
#X connect 3 0 6 0;
#X connect 4 0 5 0;
#X connect 4 0 28 0;
#X connect 5 0 21 1;
#X connect 5 0 21 0;
#X connect 5 0 24 0;
#X connect 5 0 20 0;
#X connect 6 0 25 0;
#X connect 7 0 14 0;
#X connect 9 0 10 0;
#X connect 10 0 12 0;
#X connect 11 0 26 0;
#X connect 12 0 11 0;
#X connect 13 0 21 0;
#X connect 13 0 21 1;
#X connect 13 0 24 0;
#X connect 13 0 20 0;
#X connect 14 0 4 0;
#X connect 15 0 21 0;
#X connect 15 0 24 0;
#X connect 15 0 20 0;
#X connect 15 1 21 1;
#X connect 15 1 21 0;
#X connect 15 1 24 0;
#X connect 15 1 17 0;
#X connect 16 0 14 0;
#X connect 17 0 21 0;
#X connect 17 0 21 1;
#X connect 17 0 20 0;
#X connect 18 0 43 0;
#X connect 19 0 21 1;
#X connect 19 0 21 0;
#X connect 19 0 24 0;
#X connect 20 0 21 0;
#X connect 20 0 21 1;
#X connect 20 0 24 0;
#X connect 21 0 29 0;
#X connect 21 1 29 0;
#X connect 22 0 21 0;
#X connect 22 0 21 1;
#X connect 22 0 20 0;
#X connect 22 1 21 1;
#X connect 24 0 21 1;
#X connect 24 0 21 0;
#X connect 25 0 28 1;
#X connect 26 0 48 1;
#X connect 27 0 13 0;
#X connect 28 0 51 0;
#X connect 29 0 23 0;
#X connect 29 0 23 1;
#X connect 29 0 41 0;
#X connect 30 0 33 0;
#X connect 31 0 38 0;
#X connect 32 0 33 1;
#X connect 33 0 31 0;
#X connect 34 0 35 0;
#X connect 35 0 39 0;
#X connect 36 0 20 0;
#X connect 36 0 24 0;
#X connect 37 0 36 0;
#X connect 38 0 34 0;
#X connect 39 0 37 0;
#X connect 41 0 40 0;
#X connect 41 0 40 1;
#X connect 42 0 32 0;
#X connect 43 0 16 0;
#X connect 44 0 13 0;
#X connect 44 0 48 0;
#X connect 45 0 49 0;
#X connect 46 0 47 0;
#X connect 47 0 50 0;
#X connect 48 0 27 0;
#X connect 49 0 44 0;
#X connect 50 0 49 0;
#X connect 51 0 5 0;
#X connect 52 0 58 0;
#X connect 53 0 52 0;
#X connect 54 0 55 0;
#X connect 55 0 59 0;
#X connect 56 0 24 0;
#X connect 56 0 21 0;
#X connect 56 0 21 1;
#X connect 56 0 20 0;
#X connect 57 0 56 0;
#X connect 58 0 54 0;
#X connect 59 0 57 0;
#X connect 60 0 53 0;
#X connect 61 0 53 1;
#X connect 62 0 61 0;
#X coords 0 -1 1 1 650 600 1 150 250;
