#N canvas 0 0 1920 1048 12;
#N canvas 0 50 450 250 (subpatch) 0;
#X array databend 849 float 2;
#X coords 0 1 849 -1 200 140 1;
#X restore 592 440 graph;
#X obj 562 497 bng 20 250 50 0 empty empty empty 0 -10 0 12 #e3c6ff #000000 #000000;
#X obj 122 59 openpanel;
#X msg 124 101 read -resize -raw 0 1 2 n \$1 databend;
#X obj 469 798 bng 20 250 50 0 empty empty Hit 0 -10 0 12 #fcfcfc #000000 #000000;
#X obj 583 157 tabplay~ databend;
#X obj 124 149 soundfiler;
#X obj 504 800 tgl 20 0 empty empty On/Off 0 -10 0 12 #fcfcfc #000000 #000000 0 1;
#N canvas 0 0 472 1009 (subpatch) 0;
#X array sound 1767 float 2;
#X coords 0 1 1767 -1 200 140 1 0 0;
#X restore 594 283 graph;
#X obj 551 346 bng 20 250 50 0 empty empty empty 0 -10 0 12 #e3c6ff #000000 #000000;
#X obj 865 437 openpanel;
#X obj 864 520 soundfiler;
#X msg 864 472 read -resize -raw 0 1 2 n \$1 sound;
#X obj 311 153 tabplay~ sound;
#X obj 42 291 metro 1 5 sec;
#X obj 483 119 adc~;
#X floatatom 543 796 5 0 0 0 - - - 0;
#X msg 30 231 tempo \$1 permin;
#X obj 148 198 input_trigger;
#X obj 399 760 hsl 170 20 20 2000 0 0 empty empty Databend\ BPM -2 -10 0 12 #fcfcfc #000000 #000000 0 1;
#X obj 156 395 drum_sequencer;
#N canvas 1442 845 376 1009 tapedelay 0;
#X obj 199 536 delread4~ tapedelay;
#X obj 204 505 line~;
#X msg 203 469 \$1 100;
#X floatatom 204 442 5 0 0 0 - - - 0;
#X obj 340 379 r~ feedback;
#X obj 340 407 delwrite~ tapedelay 2000;
#X obj 204 572 lop~ 8000;
#X obj 204 604 lop~ 8000;
#X obj 199 637 hip~ 300;
#X floatatom 353 561 5 0 0 0 - - - 0;
#X floatatom 355 594 5 0 0 0 - - - 0;
#X obj 207 692 *~;
#X floatatom 254 676 5 0 0 0 - - - 0;
#X obj 217 731 s~ feedback;
#X floatatom 47 589 5 0 0 0 - - - 0;
#X floatatom 111 584 5 0 0 0 - - - 0;
#X obj 45 636 *~;
#X obj 111 640 *~;
#X text 56 570 dry;
#X text 114 562 wet;
#X obj 116 184 hsl 170 20 0 8000 0 0 empty empty LOWPASS -2 -10 0 12 #fcfcfc #000000 #000000 0 1;
#X obj 116 220 hsl 170 20 0 300 0 0 empty empty HIGHPASS -2 -10 0 12 #fcfcfc #000000 #000000 0 1;
#X obj 116 257 hsl 170 20 0 1 0 0 empty empty FEEDBACK -2 -10 0 12 #fcfcfc #000000 #000000 0 1;
#X obj 116 300 hsl 170 20 0 1 0 0 empty empty WET -2 -10 0 12 #fcfcfc #000000 #000000 0 1;
#X obj 116 144 hsl 170 20 0 400 0 0 empty empty TIME -2 -10 0 12 #fcfcfc #000000 #000000 0 1;
#X obj 106 691 outlet~;
#X obj 45 693 outlet~;
#X obj 315 333 inlet~;
#X obj 116 342 hsl 170 20 0 1 0 0 empty empty DRY -2 -10 0 12 #fcfcfc #000000 #000000 0 1;
#X connect 0 0 6 0;
#X connect 0 0 17 0;
#X connect 1 0 0 0;
#X connect 2 0 1 0;
#X connect 3 0 2 0;
#X connect 4 0 5 0;
#X connect 6 0 7 0;
#X connect 7 0 8 0;
#X connect 8 0 11 0;
#X connect 9 0 6 1;
#X connect 9 0 7 1;
#X connect 10 0 8 1;
#X connect 11 0 13 0;
#X connect 12 0 11 1;
#X connect 14 0 16 1;
#X connect 15 0 17 1;
#X connect 16 0 26 0;
#X connect 17 0 25 0;
#X connect 20 0 9 0;
#X connect 21 0 10 0;
#X connect 22 0 12 0;
#X connect 23 0 15 0;
#X connect 24 0 3 0;
#X connect 27 0 5 0;
#X connect 27 0 26 0;
#X connect 28 0 14 0;
#X coords 0 -1 1 1 200 300 1 100 100;
#X restore 165 543 pd tapedelay;
#N canvas 0 0 469 1009 reverb 0;
#X obj 78 590 freeverb~, f 12;
#X obj 111 144 hsl 170 20 0.11 1.1 0 0 empty empty SIZE -2 -10 0 12 #fcfcfc #000000 #000000 0 1;
#X msg 254 505 roomsize \$1;
#X floatatom 295 456 5 0 0 0 - - - 0;
#X obj 112 181 hsl 170 20 0 1 0 0 empty empty WET -2 -10 0 12 #fcfcfc #000000 #000000 0 1;
#X floatatom 317 549 5 0 0 0 - - - 0;
#X msg 252 594 wet \$1;
#X obj 113 220 hsl 170 20 0 1 0 0 empty empty DRY -2 -10 0 12 #fcfcfc #000000 #000000 0 1;
#X floatatom 296 629 5 0 0 0 - - - 0;
#X msg 247 676 dry \$1;
#X obj 114 259 hsl 170 20 0.11 1.1 0 0 empty empty DAMP -2 -10 0 12 #fcfcfc #000000 #000000 0 1;
#X floatatom 299 703 5 0 0 0 - - - 0;
#X msg 253 753 damping \$1;
#X obj 113 313 tgl 30 0 empty empty FREEZE 0 -10 0 20 #fcfcfc #000000 #000000 0 1;
#X msg 223 803 freeze \$1;
#X obj 42 465 inlet~;
#X obj 115 466 inlet~;
#X obj 54 692 outlet~;
#X obj 122 694 outlet~;
#X connect 0 0 17 0;
#X connect 0 1 18 0;
#X connect 1 0 2 0;
#X connect 1 0 3 0;
#X connect 2 0 0 0;
#X connect 4 0 6 0;
#X connect 4 0 5 0;
#X connect 6 0 0 0;
#X connect 7 0 9 0;
#X connect 7 0 8 0;
#X connect 9 0 0 0;
#X connect 10 0 12 0;
#X connect 10 0 11 0;
#X connect 12 0 0 0;
#X connect 13 0 14 0;
#X connect 14 0 0 0;
#X connect 15 0 0 0;
#X connect 16 1 0 1;
#X coords 0 -1 1 1 200 250 1 100 100;
#X restore 592 587 pd reverb;
#N canvas 1442 5 469 1009 complexOsc 0;
#X text 437 625 feedback to FModulate osc 1;
#X obj 306 581 osc~ 200;
#X obj 307 669 *~ 0.5;
#X obj 112 271 hsl 170 20 0 127 0 0 empty empty empty -2 -10 0 12 #fcfcfc #000000 #000000 0 1;
#X floatatom 329 487 5 0 0 0 - - - 0;
#X obj 329 511 mtof;
#X floatatom 329 536 5 0 0 0 - - - 0;
#X obj 265 557 +~;
#X obj 112 238 hsl 170 20 0 127 0 0 empty empty empty -2 -10 0 12 #fcfcfc #000000 #000000 0 1;
#X floatatom 281 412 5 0 0 0 - - - 0;
#X obj 281 436 mtof;
#X floatatom 281 461 5 0 0 0 - - - 0;
#X obj 265 498 *~;
#X obj 40 587 osc~ 200;
#X obj 113 198 hsl 170 20 0 127 0 0 empty empty empty -2 -10 0 12 #fcfcfc #000000 #000000 0 1;
#X floatatom 63 493 5 0 0 0 - - - 0;
#X obj 63 517 mtof;
#X floatatom 63 542 5 0 0 0 - - - 0;
#X obj -1 563 +~;
#X obj 113 150 hsl 170 20 0 127 0 0 empty empty empty -2 -10 0 12 #fcfcfc #000000 #000000 0 1;
#X floatatom 15 418 5 0 0 0 - - - 0;
#X obj 15 442 mtof;
#X floatatom 15 467 5 0 0 0 - - - 0;
#X obj -1 504 *~;
#X obj 342 617 send~ fedback;
#X obj -2 356 receive~ fedback;
#X obj 224 731 outlet~;
#X obj 346 740 outlet~;
#X connect 1 0 2 0;
#X connect 1 0 24 0;
#X connect 2 0 27 0;
#X connect 2 0 26 0;
#X connect 3 0 4 0;
#X connect 4 0 5 0;
#X connect 5 0 6 0;
#X connect 6 0 7 1;
#X connect 7 0 1 0;
#X connect 8 0 9 0;
#X connect 9 0 10 0;
#X connect 10 0 11 0;
#X connect 11 0 12 1;
#X connect 12 0 7 0;
#X connect 13 0 12 0;
#X connect 14 0 15 0;
#X connect 15 0 16 0;
#X connect 16 0 17 0;
#X connect 17 0 18 1;
#X connect 18 0 13 0;
#X connect 19 0 20 0;
#X connect 20 0 21 0;
#X connect 21 0 22 0;
#X connect 22 0 23 1;
#X connect 23 0 18 0;
#X connect 25 0 23 0;
#X coords 0 -1 1 1 200 200 1 100 100;
#X restore 382 531 pd complexOsc;
#X obj 372 785 output~;
#X obj 386 856 *~ 10;
#N canvas 0 0 469 1009 wavefolder 0;
#X obj 83 309 inlet~;
#X obj 83 334 *~;
#X obj 288 225 hsl 170 20 1 127 0 0 empty empty empty -2 -10 0 12 #fcfcfc #000000 #000000 0 1;
#X obj 83 359 expr~ if($v1 > 1 \, 2-$v1 \, $v1);
#X obj 83 384 expr~ if($v1 < -1 \, -2-$v1 \, $v1);
#X obj 82 414 expr~ if($v1 > 1 \, 2-$v1 \, $v1);
#X obj 82 439 expr~ if($v1 < -1 \, -2-$v1 \, $v1);
#N canvas 0 50 450 250 (subpatch) 0;
#X array \$0-display 100 float 3;
#A 0 83.1545 43.6322 45.145 43.0991 90.5418 66.9728 58.1621 72.4235 72.397 27.3588 72.2403 67.7072 94.4434 86.0546 88.1344 35.2028 24.0023 34.5132 12.36 31.0429 26.2421 21.2185 29.9978 63.0008 64.6773 89.8949 35.6264 20.4174 23.2391 59.4102 58.9061 62.2948 59.8082 26.3689 19.6075 24.3218 24.5301 72.1299 25.0774 28.5324 25.7431 74.0399 61.2518 59.7452 78.4928 83.6086 40.7406 88.848 73.1084 89.1511 72.767 90.3836 6.18619 25.0926 45.3882 23.7126 46.5206 43.8087 31.1282 70.6956 21.9365 33.5528 21.0663 37.4493 29.1346 76.1898 80.1419 89.9048 50.3681 51.7029 30.3066 90.666 110.99 111.265 79.8179 83.3267 89.3966 88.541 131.195 125.255 125.878 64.0838 110.166 107.69 104.936 113.659 47.796 102.895 117.703 114.225 75.247 76.4703 62.48 75.671 57.0813 64.6708 67.5368 63.5242 59.8357 59.7894;
#X coords 0 1 100 -1 200 140 1;
#X restore 275 81 graph;
#X floatatom 253 257 5 0 0 0 - - - 0;
#X obj 106 506 *~;
#X obj 75 549 outlet~;
#X obj 133 550 outlet~;
#X obj 233 481 tgl 20 0 empty empty empty 0 -10 0 12 #fcfcfc #000000 #000000 0 1;
#X obj 233 506 metro 100;
#X obj 233 531 tabwrite~ \$0-display;
#X obj 302 257 hsl 170 20 5 127 0 0 empty empty empty -2 -10 0 12 #fcfcfc #000000 #000000 0 1;
#X connect 0 0 1 0;
#X connect 1 0 3 0;
#X connect 2 0 1 1;
#X connect 3 0 4 0;
#X connect 4 0 5 0;
#X connect 5 0 6 0;
#X connect 6 0 9 0;
#X connect 6 0 14 0;
#X connect 8 0 9 1;
#X connect 9 0 10 0;
#X connect 9 0 11 0;
#X connect 12 0 13 0;
#X connect 13 0 14 0;
#X connect 15 0 8 0;
#X coords 0 -1 1 1 250 250 1 250 30;
#X restore 275 276 pd wavefolder;
#X obj 866 842 gemwin;
#X msg 814 652 dimen 640 480;
#X msg 906 753 create \, 1;
#X msg 849 689 0 \, destroy;
#X obj 1077 899 square;
#X obj 1091 688 gemhead;
#X obj 1109 784 colorRGB;
#X msg 1025 773 draw line;
#X obj 1020 737 loadbang;
#X floatatom 1130 732 5 0 0 0 - - - 0;
#X floatatom 1177 735 5 0 0 0 - - - 0;
#X floatatom 1227 738 5 0 0 0 - - - 0;
#X obj 1126 822 scaleXYZ;
#X floatatom 1206 787 5 0 0 0 - - - 0;
#X obj 1129 864 rotateXYZ;
#X floatatom 1200 827 5 0 0 0 - - - 0;
#X floatatom 1246 827 5 0 0 0 - - - 0;
#X floatatom 1293 828 5 0 0 0 - - - 0;
#X connect 1 0 2 0;
#X connect 2 0 3 0;
#X connect 3 0 6 0;
#X connect 4 0 13 0;
#X connect 4 0 5 0;
#X connect 5 0 18 0;
#X connect 5 0 22 1;
#X connect 5 0 22 0;
#X connect 5 0 26 0;
#X connect 5 1 40 0;
#X connect 7 0 14 0;
#X connect 9 0 10 0;
#X connect 10 0 12 0;
#X connect 12 0 11 0;
#X connect 13 0 22 0;
#X connect 13 0 22 1;
#X connect 13 0 26 0;
#X connect 13 1 42 0;
#X connect 13 1 43 0;
#X connect 13 1 44 0;
#X connect 14 0 4 0;
#X connect 15 0 22 0;
#X connect 15 0 18 0;
#X connect 15 0 26 0;
#X connect 15 1 22 1;
#X connect 15 1 22 0;
#X connect 15 1 26 0;
#X connect 16 0 17 0;
#X connect 17 0 14 0;
#X connect 19 0 16 0;
#X connect 20 0 21 0;
#X connect 20 0 22 1;
#X connect 20 0 22 0;
#X connect 20 0 26 0;
#X connect 21 0 25 0;
#X connect 21 1 25 0;
#X connect 22 0 21 0;
#X connect 22 0 25 0;
#X connect 22 1 21 0;
#X connect 22 1 25 0;
#X connect 23 0 22 0;
#X connect 23 0 22 1;
#X connect 23 1 22 0;
#X connect 25 0 24 0;
#X connect 25 0 24 1;
#X connect 26 0 22 0;
#X connect 26 0 22 1;
#X connect 28 0 27 0;
#X connect 29 0 27 0;
#X connect 30 0 27 0;
#X connect 32 0 33 0;
#X connect 33 0 39 0;
#X connect 34 0 31 0;
#X connect 35 0 34 0;
#X connect 36 0 33 1;
#X connect 37 0 33 2;
#X connect 38 0 33 3;
#X connect 39 0 41 0;
#X connect 40 0 39 1;
#X connect 40 0 39 2;
#X connect 40 0 39 3;
#X connect 41 0 31 0;
#X connect 42 0 41 1;
#X connect 43 0 41 2;
#X connect 44 0 41 3;
#X coords 0 -1 1 1 650 600 1 150 250;
