#N canvas 642 845 632 1009 12;
#N canvas 0 50 450 250 (subpatch) 0;
#X array databend 9488 float 2;
#X coords 0 1 9488 -1 200 140 1;
#X restore 592 440 graph;
#X obj 562 497 bng 20 250 50 0 empty empty empty 0 -10 0 12 #e3c6ff #000000 #000000;
#X obj 122 59 openpanel;
#X msg 124 101 read -resize -raw 0 1 2 n \$1 databend;
#X obj 472 793 bng 20 250 50 0 empty empty empty 0 -10 0 12 #fcfcfc #000000 #000000;
#X obj 583 157 tabplay~ databend;
#X obj 124 149 soundfiler;
#X obj 507 794 tgl 20 0 empty empty empty 0 -10 0 12 #fcfcfc #000000 #000000 0 1;
#X obj 387 791 output~;
#N canvas 0 50 450 250 (subpatch) 0;
#X array sound 26 float 2;
#X coords 0 1 26 -1 200 140 1 0 0;
#X restore 594 283 graph;
#X obj 551 346 bng 20 250 50 0 empty empty empty 0 -10 0 12 #e3c6ff #000000 #000000;
#X obj 865 437 openpanel;
#X obj 864 520 soundfiler;
#X msg 864 472 read -resize -raw 0 1 2 n \$1 sound;
#X obj 309 139 tabplay~ sound;
#X obj 42 291 metro 1 5 sec;
#X obj 483 119 adc~;
#X floatatom 543 796 5 0 0 0 - - - 0;
#X msg 30 231 tempo \$1 permin;
#X obj 210 304 input_trigger;
#X obj 399 757 hsl 170 20 20 2000 0 0 empty empty empty -2 -10 0 12 #fcfcfc #000000 #000000 0 1;
#X obj 201 353 drum_sequencer;
#N canvas 1442 845 472 1009 tapedelay 0;
#X obj 199 536 delread4~ tapedelay;
#X obj 204 505 line~;
#X msg 203 469 \$1 100;
#X floatatom 204 442 5 0 0 0 - - - 0;
#X obj 340 379 r~ feedback;
#X obj 340 407 delwrite~ tapedelay 2000;
#X obj 204 572 lop~ 8000;
#X obj 204 604 lop~ 8000;
#X obj 199 637 hip~ 300;
#X floatatom 353 561 5 0 0 0 - - - 0;
#X floatatom 355 594 5 0 0 0 - - - 0;
#X obj 207 692 *~;
#X floatatom 254 676 5 0 0 0 - - - 0;
#X obj 217 731 s~ feedback;
#X floatatom 47 589 5 0 0 0 - - - 0;
#X floatatom 111 584 5 0 0 0 - - - 0;
#X obj 45 636 *~;
#X obj 111 640 *~;
#X text 56 570 dry;
#X text 114 562 wet;
#X obj 116 184 hsl 170 20 0 8000 0 0 empty empty LOWPASS -2 -10 0 12 #fcfcfc #000000 #000000 0 1;
#X obj 116 220 hsl 170 20 0 300 0 0 empty empty HIGHPASS -2 -10 0 12 #fcfcfc #000000 #000000 0 1;
#X obj 116 257 hsl 170 20 0 1 0 0 empty empty FEEDBACK -2 -10 0 12 #fcfcfc #000000 #000000 0 1;
#X obj 116 300 hsl 170 20 0 1 0 0 empty empty WET -2 -10 0 12 #fcfcfc #000000 #000000 0 1;
#X obj 116 144 hsl 170 20 0 400 0 0 empty empty TIME -2 -10 0 12 #fcfcfc #000000 #000000 0 1;
#X obj 106 691 outlet~;
#X obj 45 693 outlet~;
#X obj 315 333 inlet~;
#X obj 116 342 hsl 170 20 0 1 0 0 empty empty DRY -2 -10 0 12 #fcfcfc #000000 #000000 0 1;
#X connect 0 0 6 0;
#X connect 0 0 17 0;
#X connect 1 0 0 0;
#X connect 2 0 1 0;
#X connect 3 0 2 0;
#X connect 4 0 5 0;
#X connect 6 0 7 0;
#X connect 7 0 8 0;
#X connect 8 0 11 0;
#X connect 9 0 6 1;
#X connect 9 0 7 1;
#X connect 10 0 8 1;
#X connect 11 0 13 0;
#X connect 12 0 11 1;
#X connect 14 0 16 1;
#X connect 15 0 17 1;
#X connect 16 0 26 0;
#X connect 17 0 25 0;
#X connect 20 0 9 0;
#X connect 21 0 10 0;
#X connect 22 0 12 0;
#X connect 23 0 15 0;
#X connect 24 0 3 0;
#X connect 27 0 5 0;
#X connect 27 0 26 0;
#X connect 28 0 14 0;
#X coords 0 -1 1 1 200 300 1 100 100;
#X restore 165 543 pd tapedelay;
#N canvas 1282 5 469 1009 filter 0;
#X obj 75 536 bob~, f 17;
#X obj 222 234 hsl 170 20 0 8 0 0 empty empty resonance -2 -10 0 12 #fcfcfc #000000 #000000 0 1;
#X floatatom 247 412 5 0 0 0 - - - 0;
#X obj 247 441 sig~;
#X obj 222 282 hsl 170 20 40 600 0 0 empty empty cutoff\ freq -2 -10 0 12 #fcfcfc #000000 #000000 0 1;
#X floatatom 47 412 5 0 0 0 - - - 0;
#X obj 47 447 pack f 50;
#X obj 47 483 line~;
#X obj 386 533 bob~, f 17;
#X obj 221 319 hsl 170 20 0 8 0 0 empty empty resonance -2 -10 0 12 #fcfcfc #000000 #000000 0 1;
#X floatatom 607 431 5 0 0 0 - - - 0;
#X obj 607 460 sig~;
#X obj 221 358 hsl 170 20 40 300 0 0 empty empty cutoff\ freq -2 -10 0 12 #fcfcfc #000000 #000000 0 1;
#X floatatom 407 431 5 0 0 0 - - - 0;
#X obj 407 466 pack f 50;
#X obj 407 502 line~;
#X obj 275 564 +~;
#X obj 275 650 outlet~;
#X connect 0 0 16 0;
#X connect 1 0 2 0;
#X connect 2 0 3 0;
#X connect 3 0 0 2;
#X connect 4 0 5 0;
#X connect 5 0 6 0;
#X connect 6 0 7 0;
#X connect 7 0 0 1;
#X connect 8 0 16 1;
#X connect 9 0 10 0;
#X connect 10 0 11 0;
#X connect 11 0 8 2;
#X connect 12 0 13 0;
#X connect 13 0 14 0;
#X connect 14 0 15 0;
#X connect 15 0 8 1;
#X connect 16 0 17 0;
#X coords 0 -1 1 1 200 200 1 200 200;
#X restore 378 544 pd filter;
#N canvas 0 0 469 1009 reverb 0;
#X obj 78 590 freeverb~, f 12;
#X obj 111 144 hsl 170 20 0.11 1.1 0 0 empty empty SIZE -2 -10 0 12 #fcfcfc #000000 #000000 0 1;
#X msg 254 505 roomsize \$1;
#X floatatom 295 456 5 0 0 0 - - - 0;
#X obj 112 181 hsl 170 20 0 1 0 0 empty empty WET -2 -10 0 12 #fcfcfc #000000 #000000 0 1;
#X floatatom 317 549 5 0 0 0 - - - 0;
#X msg 252 594 wet \$1;
#X obj 113 220 hsl 170 20 0 1 0 0 empty empty DRY -2 -10 0 12 #fcfcfc #000000 #000000 0 1;
#X floatatom 296 629 5 0 0 0 - - - 0;
#X msg 247 676 dry \$1;
#X obj 114 259 hsl 170 20 0.11 1.1 0 0 empty empty DAMP -2 -10 0 12 #fcfcfc #000000 #000000 0 1;
#X floatatom 299 703 5 0 0 0 - - - 0;
#X msg 253 753 damping \$1;
#X obj 113 313 tgl 30 0 empty empty FREEZE 0 -10 0 20 #fcfcfc #000000 #000000 0 1;
#X msg 223 803 freeze \$1;
#X obj 42 465 inlet~;
#X obj 115 466 inlet~;
#X obj 54 692 outlet~;
#X obj 122 694 outlet~;
#X connect 0 0 17 0;
#X connect 0 1 18 0;
#X connect 1 0 2 0;
#X connect 1 0 3 0;
#X connect 2 0 0 0;
#X connect 4 0 6 0;
#X connect 4 0 5 0;
#X connect 6 0 0 0;
#X connect 7 0 9 0;
#X connect 7 0 8 0;
#X connect 9 0 0 0;
#X connect 10 0 12 0;
#X connect 10 0 11 0;
#X connect 12 0 0 0;
#X connect 13 0 14 0;
#X connect 14 0 0 0;
#X connect 15 0 0 0;
#X connect 16 1 0 1;
#X coords 0 -1 1 1 200 250 1 100 100;
#X restore 592 589 pd reverb;
#X connect 1 0 2 0;
#X connect 2 0 3 0;
#X connect 3 0 6 0;
#X connect 4 0 14 0;
#X connect 4 0 5 0;
#X connect 5 0 24 0;
#X connect 5 0 24 1;
#X connect 5 0 19 0;
#X connect 5 1 24 1;
#X connect 7 0 15 0;
#X connect 10 0 11 0;
#X connect 11 0 13 0;
#X connect 13 0 12 0;
#X connect 14 0 24 0;
#X connect 14 0 24 1;
#X connect 15 0 4 0;
#X connect 16 0 24 0;
#X connect 16 0 19 0;
#X connect 16 1 24 1;
#X connect 16 1 24 0;
#X connect 17 0 18 0;
#X connect 18 0 15 0;
#X connect 19 0 24 0;
#X connect 19 0 24 1;
#X connect 20 0 17 0;
#X connect 21 0 24 0;
#X connect 21 0 24 1;
#X connect 21 0 22 0;
#X connect 22 0 8 0;
#X connect 22 0 8 1;
#X connect 22 1 8 0;
#X connect 22 1 8 1;
#X connect 23 0 8 1;
#X connect 23 0 8 0;
#X connect 24 0 8 0;
#X connect 24 0 22 0;
#X connect 24 1 8 1;
#X connect 24 1 22 0;
#X coords 0 -1 1 1 650 600 1 150 250;
