#N canvas 1442 5 629 1009 12;
#X obj 186 172 r 1/16;
#X obj 186 197 bng 20 250 50 0 empty empty empty 0 -10 0 12 #fcfcfc #000000 #000000;
#X msg 186 235 0;
#X obj 186 260 s Drum_note;
#X obj 259 174 loadbang;
#X obj 347 187 r 2/16;
#X obj 347 212 bng 20 250 50 0 empty empty empty 0 -10 0 12 #fcfcfc #000000 #000000;
#X obj 347 262 s Drum_note;
#X obj 412 140 r New_pattern;
#X obj 412 165 bng 20 250 50 0 empty empty empty 0 -10 0 12 #fcfcfc #000000 #000000;
#X obj 412 190 random 5;
#X msg 259 199 set 0;
#X msg 412 215 set \$1;
#X obj 518 197 bng 20 250 50 0 empty empty empty 0 -10 0 12 #fcfcfc #000000 #000000;
#X msg 518 235 0;
#X obj 518 260 s Drum_note;
#X obj 591 174 loadbang;
#X msg 591 199 set 0;
#X obj 518 172 r 3/16;
#X obj 666 217 bng 20 250 50 0 empty empty empty 0 -10 0 12 #fcfcfc #000000 #000000;
#X obj 666 267 s Drum_note;
#X obj 731 145 r New_pattern;
#X obj 731 170 bng 20 250 50 0 empty empty empty 0 -10 0 12 #fcfcfc #000000 #000000;
#X obj 731 195 random 5;
#X msg 731 220 set \$1;
#X obj 666 192 r 4/16;
#X obj 821 219 bng 20 250 50 0 empty empty empty 0 -10 0 12 #fcfcfc #000000 #000000;
#X obj 821 269 s Drum_note;
#X obj 886 147 r New_pattern;
#X obj 886 172 bng 20 250 50 0 empty empty empty 0 -10 0 12 #fcfcfc #000000 #000000;
#X obj 886 197 random 5;
#X msg 886 222 set \$1;
#X obj 821 194 r 5/16;
#X obj 970 221 bng 20 250 50 0 empty empty empty 0 -10 0 12 #fcfcfc #000000 #000000;
#X msg 970 246 2;
#X obj 970 271 s Drum_note;
#X obj 1035 149 r New_pattern;
#X obj 1035 174 bng 20 250 50 0 empty empty empty 0 -10 0 12 #fcfcfc #000000 #000000;
#X obj 1035 199 random 5;
#X msg 1035 224 set \$1;
#X obj 970 196 r 6/16;
#X obj 1123 226 bng 20 250 50 0 empty empty empty 0 -10 0 12 #fcfcfc #000000 #000000;
#X obj 1123 276 s Drum_note;
#X obj 1188 154 r New_pattern;
#X obj 1188 179 bng 20 250 50 0 empty empty empty 0 -10 0 12 #fcfcfc #000000 #000000;
#X obj 1188 204 random 5;
#X msg 1188 229 set \$1;
#X obj 1123 201 r 7/16;
#X obj 1278 232 bng 20 250 50 0 empty empty empty 0 -10 0 12 #fcfcfc #000000 #000000;
#X obj 1278 282 s Drum_note;
#X obj 1343 160 r New_pattern;
#X obj 1343 185 bng 20 250 50 0 empty empty empty 0 -10 0 12 #fcfcfc #000000 #000000;
#X obj 1343 210 random 5;
#X msg 1343 235 set \$1;
#X obj 1278 207 r 8/16;
#X obj 178 387 bng 20 250 50 0 empty empty empty 0 -10 0 12 #fcfcfc #000000 #000000;
#X msg 178 412 2;
#X obj 178 437 s Drum_note;
#X obj 243 315 r New_pattern;
#X obj 243 340 bng 20 250 50 0 empty empty empty 0 -10 0 12 #fcfcfc #000000 #000000;
#X obj 243 365 random 5;
#X msg 243 390 set \$1;
#X obj 178 362 r 9/16;
#X obj 362 391 bng 20 250 50 0 empty empty empty 0 -10 0 12 #fcfcfc #000000 #000000;
#X obj 362 441 s Drum_note;
#X obj 427 319 r New_pattern;
#X obj 427 344 bng 20 250 50 0 empty empty empty 0 -10 0 12 #fcfcfc #000000 #000000;
#X obj 427 369 random 5;
#X msg 427 394 set \$1;
#X obj 362 366 r 10/16;
#X obj 548 396 bng 20 250 50 0 empty empty empty 0 -10 0 12 #fcfcfc #000000 #000000;
#X obj 548 446 s Drum_note;
#X obj 613 324 r New_pattern;
#X obj 613 349 bng 20 250 50 0 empty empty empty 0 -10 0 12 #fcfcfc #000000 #000000;
#X obj 613 374 random 5;
#X msg 613 399 set \$1;
#X obj 548 371 r 11/16;
#X obj 707 395 bng 20 250 50 0 empty empty empty 0 -10 0 12 #fcfcfc #000000 #000000;
#X obj 707 445 s Drum_note;
#X obj 772 323 r New_pattern;
#X obj 772 348 bng 20 250 50 0 empty empty empty 0 -10 0 12 #fcfcfc #000000 #000000;
#X obj 772 373 random 5;
#X msg 772 398 set \$1;
#X obj 707 370 r 12/16;
#X obj 877 400 bng 20 250 50 0 empty empty empty 0 -10 0 12 #fcfcfc #000000 #000000;
#X obj 877 450 s Drum_note;
#X obj 942 328 r New_pattern;
#X obj 942 353 bng 20 250 50 0 empty empty empty 0 -10 0 12 #fcfcfc #000000 #000000;
#X obj 942 378 random 5;
#X msg 942 403 set \$1;
#X obj 877 375 r 13/16;
#X obj 1031 401 bng 20 250 50 0 empty empty empty 0 -10 0 12 #fcfcfc #000000 #000000;
#X obj 1031 451 s Drum_note;
#X obj 1096 329 r New_pattern;
#X obj 1096 354 bng 20 250 50 0 empty empty empty 0 -10 0 12 #fcfcfc #000000 #000000;
#X obj 1096 379 random 5;
#X msg 1096 404 set \$1;
#X obj 1031 376 r 14/16;
#X obj 1180 404 bng 20 250 50 0 empty empty empty 0 -10 0 12 #fcfcfc #000000 #000000;
#X obj 1180 454 s Drum_note;
#X obj 1245 332 r New_pattern;
#X obj 1245 357 bng 20 250 50 0 empty empty empty 0 -10 0 12 #fcfcfc #000000 #000000;
#X obj 1245 382 random 5;
#X msg 1245 407 set \$1;
#X obj 1180 379 r 15/16;
#X obj 1327 405 bng 20 250 50 0 empty empty empty 0 -10 0 12 #fcfcfc #000000 #000000;
#X msg 1327 430 3;
#X obj 1327 455 s Drum_note;
#X obj 1392 333 r New_pattern;
#X obj 1392 358 bng 20 250 50 0 empty empty empty 0 -10 0 12 #fcfcfc #000000 #000000;
#X obj 1392 383 random 5;
#X msg 1392 408 set \$1;
#X obj 1327 380 r 16/16;
#X obj 858 545 r Drum_note;
#X floatatom 858 570 5 0 0 0 - - - 0;
#X obj 858 619 send~ Drums;
#X obj 797 550 tgl 20 0 empty empty empty 0 -10 0 12 #fcfcfc #000000 #000000 0 1;
#X obj 797 575 s ON;
#X msg 347 237 1;
#X msg 666 242 1;
#X msg 821 244 0;
#X msg 1123 251 1;
#X msg 1278 257 1;
#X msg 362 416 1;
#X msg 548 421 3;
#X msg 707 420 4;
#X msg 877 425 2;
#X msg 1031 426 3;
#X msg 1180 429 3;
#X obj 103 148 tgl 20 0 empty empty empty 0 -10 0 12 #fcfcfc #000000 #000000 0 1;
#X obj 103 173 s ON;
#X floatatom 144 136 5 0 1000 0 - - - 0;
#X obj 144 166 s BPM;
#N canvas 1282 5 312 979 Drum_samples 0;
#X obj 962 135 inlet;
#X floatatom 962 160 5 0 0 0 - - - 0;
#X obj 819 197 sel 0;
#X obj 906 199 sel 1;
#X obj 970 200 sel 2;
#X obj 1049 202 sel 3;
#X obj 1117 200 sel 4;
#X obj 819 222 bng 20 250 50 0 empty empty empty 0 -10 0 12 #fcfcfc #000000 #000000;
#X obj 802 375 readsf~;
#X obj 907 226 bng 20 250 50 0 empty empty empty 0 -10 0 12 #fcfcfc #000000 #000000;
#X obj 889 379 readsf~;
#X obj 972 230 bng 20 250 50 0 empty empty empty 0 -10 0 12 #fcfcfc #000000 #000000;
#X obj 954 383 readsf~;
#X obj 1049 233 bng 20 250 50 0 empty empty empty 0 -10 0 12 #fcfcfc #000000 #000000;
#X obj 1031 386 readsf~;
#X obj 1119 231 bng 20 250 50 0 empty empty empty 0 -10 0 12 #fcfcfc #000000 #000000;
#X obj 1101 384 readsf~;
#X obj 954 467 *~ 0.75;
#X obj 954 492 outlet~;
#X msg 525 312 open /home/trasha/Music/samples/hardcore-kick-distorted-loud-shot.wav \, 1;
#X msg 810 258 open /home/trasha/Music/samples/hardcore-snare-industrial.wav \, 1;
#X msg 1038 289 open /home/trasha/Music/samples/hardcore-kick-distorted-loud-shot.wav \, 1;
#X msg 1259 243 open /home/trasha/Music/samples/hardcore-snare-industrial.wav \, 1;
#X msg 1371 213 open /home/trasha/Music/samples/38041__experimental-illness__breakbeatf-ckcore_hiasshatdistrotin.wav \, 1;
#X connect 0 0 1 0;
#X connect 1 0 2 0;
#X connect 1 0 3 0;
#X connect 1 0 4 0;
#X connect 1 0 5 0;
#X connect 1 0 6 0;
#X connect 2 0 7 0;
#X connect 3 0 9 0;
#X connect 4 0 11 0;
#X connect 5 0 13 0;
#X connect 6 0 15 0;
#X connect 7 0 19 0;
#X connect 8 0 17 0;
#X connect 9 0 20 0;
#X connect 10 0 17 0;
#X connect 11 0 21 0;
#X connect 12 0 17 0;
#X connect 13 0 22 0;
#X connect 14 0 17 0;
#X connect 15 0 23 0;
#X connect 16 0 17 0;
#X connect 17 0 18 0;
#X connect 19 0 8 0;
#X connect 20 0 10 0;
#X connect 21 0 12 0;
#X connect 22 0 14 0;
#X connect 23 0 16 0;
#X restore 858 594 pd Drum_samples;
#N canvas 962 5 373 1009 BPM 0;
#X obj 817 204 loadbang;
#X msg 817 229 60000;
#X obj 927 182 loadbang;
#X msg 936 217 140;
#X floatatom 933 260 5 0 0 0 - - - 0;
#X obj 904 284 bng 20 250 50 0 empty empty empty 0 -10 0 12 #fcfcfc #000000 #000000;
#X obj 904 309 /;
#X floatatom 904 335 5 0 0 0 - - - 0;
#X obj 904 359 s 4th_time;
#X obj 832 441 r ON;
#X obj 832 466 tgl 20 0 empty empty empty 0 -10 0 12 #fcfcfc #000000 #000000 0 1;
#X obj 886 443 r 4th_time;
#X obj 886 468 * 8;
#X obj 924 494 send 2_measures_time;
#X obj 844 511 metro;
#X obj 844 536 bng 20 250 50 0 empty empty empty 0 -10 0 12 #fcfcfc #000000 #000000;
#X obj 844 561 s 2_measures;
#X obj 998 182 r BPM;
#X connect 0 0 1 0;
#X connect 1 0 6 0;
#X connect 2 0 3 0;
#X connect 3 0 4 0;
#X connect 4 0 5 0;
#X connect 4 0 6 1;
#X connect 5 0 6 0;
#X connect 6 0 7 0;
#X connect 7 0 8 0;
#X connect 9 0 10 0;
#X connect 10 0 14 0;
#X connect 11 0 12 0;
#X connect 12 0 13 0;
#X connect 12 0 14 1;
#X connect 14 0 15 0;
#X connect 15 0 16 0;
#X connect 17 0 4 0;
#X restore 53 616 pd BPM;
#N canvas 1538 5 373 1009 bass_clock 0;
#X obj 313 136 r ON;
#X obj 313 161 tgl 20 0 empty empty empty 0 -10 0 12 #fcfcfc #000000 #000000 0 1;
#X obj 383 139 r 4th_time;
#X obj 383 164 / 4;
#X floatatom 383 189 5 0 0 0 - - - 0;
#X obj 312 240 metro;
#X obj 246 248 sel 0;
#X obj 246 273 bng 20 250 50 0 empty empty empty 0 -10 0 12 #fcfcfc #000000 #000000;
#X msg 246 298;
#X obj 182 235 loadbang;
#X obj 312 265 bng 20 250 50 0 empty empty empty 0 -10 0 12 #fcfcfc #000000 #000000;
#X obj 312 290 int 1;
#X obj 387 326 + 1;
#X floatatom 312 315 5 0 0 0 - - - 0;
#X obj 312 339 % 16;
#X obj 312 364 + 1;
#X floatatom 312 389 5 0 0 0 - - - 0;
#X obj 313 423 sel 1 2 3 4 5 6 7 8 9 10 11 12 13 14 15 16;
#X obj 181 532 bng 20 250 50 0 empty empty empty 0 -10 0 12 #fcfcfc #000000 #000000;
#X obj 181 557 s 1/16;
#X obj 232 534 bng 20 250 50 0 empty empty empty 0 -10 0 12 #fcfcfc #000000 #000000;
#X obj 232 559 s 2/16;
#X obj 284 534 bng 20 250 50 0 empty empty empty 0 -10 0 12 #fcfcfc #000000 #000000;
#X obj 284 559 s 3/16;
#X obj 337 532 bng 20 250 50 0 empty empty empty 0 -10 0 12 #fcfcfc #000000 #000000;
#X obj 337 557 s 4/16;
#X obj 386 534 bng 20 250 50 0 empty empty empty 0 -10 0 12 #fcfcfc #000000 #000000;
#X obj 386 559 s 5/16;
#X obj 440 535 bng 20 250 50 0 empty empty empty 0 -10 0 12 #fcfcfc #000000 #000000;
#X obj 440 560 s 6/16;
#X obj 496 533 bng 20 250 50 0 empty empty empty 0 -10 0 12 #fcfcfc #000000 #000000;
#X obj 496 558 s 7/16;
#X obj 552 535 bng 20 250 50 0 empty empty empty 0 -10 0 12 #fcfcfc #000000 #000000;
#X obj 552 560 s 8/16;
#X obj 605 535 bng 20 250 50 0 empty empty empty 0 -10 0 12 #fcfcfc #000000 #000000;
#X obj 605 560 s 9/16;
#X obj 655 536 bng 20 250 50 0 empty empty empty 0 -10 0 12 #fcfcfc #000000 #000000;
#X obj 655 561 s 10/16;
#X obj 717 537 bng 20 250 50 0 empty empty empty 0 -10 0 12 #fcfcfc #000000 #000000;
#X obj 717 562 s 11/16;
#X obj 774 535 bng 20 250 50 0 empty empty empty 0 -10 0 12 #fcfcfc #000000 #000000;
#X obj 774 560 s 12/16;
#X obj 837 534 bng 20 250 50 0 empty empty empty 0 -10 0 12 #fcfcfc #000000 #000000;
#X obj 837 559 s 13/16;
#X obj 898 535 bng 20 250 50 0 empty empty empty 0 -10 0 12 #fcfcfc #000000 #000000;
#X obj 898 560 s 14/16;
#X obj 958 537 bng 20 250 50 0 empty empty empty 0 -10 0 12 #fcfcfc #000000 #000000;
#X obj 958 562 s 15/16;
#X obj 1023 535 bng 20 250 50 0 empty empty empty 0 -10 0 12 #fcfcfc #000000 #000000;
#X obj 1023 560 s 16/16;
#X obj 617 107 tgl 20 0 empty empty empty 0 -10 0 12 #fcfcfc #000000 #000000 0 1;
#X obj 617 132 s ON;
#X obj 1114 328 r ON;
#X obj 1168 371 tgl 20 0 empty empty empty 0 -10 0 12 #fcfcfc #000000 #000000 0 1;
#X obj 1218 333 r 4th_time;
#X obj 1218 358 / 2;
#X floatatom 1218 383 5 0 0 0 - - - 0;
#X obj 1169 417 metro;
#X obj 1116 419 sel 0;
#X obj 1116 444 bng 20 250 50 0 empty empty empty 0 -10 0 12 #fcfcfc #000000 #000000;
#X obj 1049 418 loadbang;
#X msg 1116 469 -1;
#X obj 1169 442 bng 20 250 50 0 empty empty empty 0 -10 0 12 #fcfcfc #000000 #000000;
#X obj 1167 515 int 1;
#X obj 1264 546 + 1;
#X floatatom 1170 557 5 0 0 0 - - - 0;
#X obj 1071 677 + 1;
#X floatatom 1071 702 5 0 0 0 - - - 0;
#X obj 1071 726 sel 1;
#X obj 1071 751 bng 20 250 50 0 empty empty empty 0 -10 0 12 #fcfcfc #000000 #000000;
#X obj 1071 776 s New_pattern;
#X obj 1170 581 % 8;
#X obj 1170 606 + 1;
#X floatatom 1170 631 5 0 0 0 - - - 0;
#X obj 1204 724 sel 1;
#X obj 1204 749 bng 20 250 50 0 empty empty empty 0 -10 0 12 #fcfcfc #000000 #000000;
#X obj 1204 774 s One;
#X obj 1257 749 bng 20 250 50 0 empty empty empty 0 -10 0 12 #fcfcfc #000000 #000000;
#X obj 1257 724 sel 2;
#X obj 1257 774 s Two;
#X obj 1315 749 bng 20 250 50 0 empty empty empty 0 -10 0 12 #fcfcfc #000000 #000000;
#X obj 1315 724 sel 3;
#X obj 1315 774 s Three;
#X obj 1384 749 bng 20 250 50 0 empty empty empty 0 -10 0 12 #fcfcfc #000000 #000000;
#X obj 1384 724 sel 4;
#X obj 1384 774 s Four;
#X obj 1447 749 bng 20 250 50 0 empty empty empty 0 -10 0 12 #fcfcfc #000000 #000000;
#X obj 1447 724 sel 5;
#X obj 1447 774 s Five;
#X obj 1515 746 bng 20 250 50 0 empty empty empty 0 -10 0 12 #fcfcfc #000000 #000000;
#X obj 1515 721 sel 6;
#X obj 1515 771 s Six;
#X obj 1581 747 bng 20 250 50 0 empty empty empty 0 -10 0 12 #fcfcfc #000000 #000000;
#X obj 1581 722 sel 7;
#X obj 1581 772 s Seven;
#X obj 1655 748 bng 20 250 50 0 empty empty empty 0 -10 0 12 #fcfcfc #000000 #000000;
#X obj 1655 723 sel 8;
#X obj 1655 773 s Eight;
#X obj 1506 348 tgl 20 0 empty empty empty 0 -10 0 12 #fcfcfc #000000 #000000 0 1;
#X obj 1506 373 s ON;
#X obj 955 679 + 1;
#X floatatom 955 704 5 0 0 0 - - - 0;
#X obj 955 728 sel 1;
#X obj 955 753 bng 20 250 50 0 empty empty empty 0 -10 0 12 #fcfcfc #000000 #000000;
#X obj 955 778 s Whole_note;
#X obj 1071 652 % 6;
#X obj 955 654 % 4;
#X connect 0 0 1 0;
#X connect 1 0 5 0;
#X connect 2 0 3 0;
#X connect 3 0 4 0;
#X connect 4 0 5 1;
#X connect 5 0 10 0;
#X connect 6 0 7 0;
#X connect 7 0 8 0;
#X connect 9 0 7 0;
#X connect 10 0 11 0;
#X connect 11 0 12 0;
#X connect 11 0 13 0;
#X connect 12 0 11 1;
#X connect 13 0 14 0;
#X connect 14 0 15 0;
#X connect 15 0 16 0;
#X connect 16 0 17 0;
#X connect 17 0 18 0;
#X connect 17 1 20 0;
#X connect 17 2 22 0;
#X connect 17 3 24 0;
#X connect 17 4 26 0;
#X connect 17 5 28 0;
#X connect 17 6 30 0;
#X connect 17 7 32 0;
#X connect 17 8 34 0;
#X connect 17 9 36 0;
#X connect 17 10 38 0;
#X connect 17 11 40 0;
#X connect 17 12 42 0;
#X connect 17 13 44 0;
#X connect 17 14 46 0;
#X connect 17 15 48 0;
#X connect 18 0 19 0;
#X connect 20 0 21 0;
#X connect 22 0 23 0;
#X connect 24 0 25 0;
#X connect 26 0 27 0;
#X connect 28 0 29 0;
#X connect 30 0 31 0;
#X connect 32 0 33 0;
#X connect 34 0 35 0;
#X connect 36 0 37 0;
#X connect 38 0 39 0;
#X connect 40 0 41 0;
#X connect 42 0 43 0;
#X connect 44 0 45 0;
#X connect 46 0 47 0;
#X connect 48 0 49 0;
#X connect 50 0 51 0;
#X connect 52 0 53 0;
#X connect 53 0 57 0;
#X connect 53 0 58 0;
#X connect 54 0 55 0;
#X connect 55 0 56 0;
#X connect 56 0 57 1;
#X connect 57 0 62 0;
#X connect 58 0 59 0;
#X connect 59 0 61 0;
#X connect 60 0 59 0;
#X connect 62 0 63 0;
#X connect 63 0 64 0;
#X connect 63 0 65 0;
#X connect 64 0 63 1;
#X connect 65 0 71 0;
#X connect 65 0 105 0;
#X connect 65 0 106 0;
#X connect 66 0 67 0;
#X connect 67 0 68 0;
#X connect 68 0 69 0;
#X connect 69 0 70 0;
#X connect 71 0 72 0;
#X connect 72 0 73 0;
#X connect 73 0 74 0;
#X connect 73 0 78 0;
#X connect 73 0 81 0;
#X connect 73 0 84 0;
#X connect 73 0 87 0;
#X connect 73 0 90 0;
#X connect 73 0 93 0;
#X connect 73 0 96 0;
#X connect 74 0 75 0;
#X connect 75 0 76 0;
#X connect 77 0 79 0;
#X connect 78 0 77 0;
#X connect 80 0 82 0;
#X connect 81 0 80 0;
#X connect 83 0 85 0;
#X connect 84 0 83 0;
#X connect 86 0 88 0;
#X connect 87 0 86 0;
#X connect 89 0 91 0;
#X connect 90 0 89 0;
#X connect 92 0 94 0;
#X connect 93 0 92 0;
#X connect 95 0 97 0;
#X connect 96 0 95 0;
#X connect 98 0 99 0;
#X connect 100 0 101 0;
#X connect 101 0 102 0;
#X connect 102 0 103 0;
#X connect 103 0 104 0;
#X connect 105 0 66 0;
#X connect 106 0 100 0;
#X restore 53 650 pd bass_clock;
#N canvas 1374 5 266 979 sequencer_mix 0;
#X obj 814 316 receive~ Drums;
#X obj 815 374 *~ 0.4;
#X obj 917 447 *~ 0.75;
#X obj 954 472 *~ 1;
#X obj 917 472 *~ 1;
#X obj 798 549 outlet~;
#X obj 706 342 inlet~;
#X obj 964 314 receive~ Kick;
#X obj 940 381 *~ 0.7;
#X connect 0 0 1 0;
#X connect 1 0 2 0;
#X connect 2 0 3 0;
#X connect 2 0 4 0;
#X connect 3 0 5 0;
#X connect 4 0 5 0;
#X connect 6 0 2 0;
#X connect 7 0 8 0;
#X connect 8 0 2 0;
#X restore 55 578 pd sequencer_mix;
#X obj 113 610 outlet~;
#N canvas 1538 5 373 1009 kick 0;
#X obj 758 305 tgl 20 0 empty empty empty 0 -10 0 12 #fcfcfc #000000 #000000 0 1;
#X obj 758 330 s ON;
#X obj 888 293 r Whole_note;
#X obj 888 318 bng 20 250 50 0 empty empty empty 0 -10 0 12 #fcfcfc #000000 #000000;
#X msg 888 343 open /home/trasha/Music/samples/hardcore-kick-distorted-loud-shot.wav \, 1;
#X obj 888 398 readsf~;
#X obj 888 423 send~ Kick;
#X connect 0 0 1 0;
#X connect 2 0 3 0;
#X connect 3 0 4 0;
#X connect 4 0 5 0;
#X connect 5 0 6 0;
#X restore 56 689 pd kick;
#X connect 0 0 1 0;
#X connect 1 0 2 0;
#X connect 2 0 3 0;
#X connect 4 0 11 0;
#X connect 5 0 6 0;
#X connect 6 0 118 0;
#X connect 8 0 9 0;
#X connect 9 0 10 0;
#X connect 10 0 12 0;
#X connect 11 0 2 0;
#X connect 12 0 118 0;
#X connect 13 0 14 0;
#X connect 14 0 15 0;
#X connect 16 0 17 0;
#X connect 17 0 14 0;
#X connect 18 0 13 0;
#X connect 19 0 119 0;
#X connect 21 0 22 0;
#X connect 22 0 23 0;
#X connect 23 0 24 0;
#X connect 24 0 119 0;
#X connect 25 0 19 0;
#X connect 26 0 120 0;
#X connect 28 0 29 0;
#X connect 29 0 30 0;
#X connect 30 0 31 0;
#X connect 31 0 120 0;
#X connect 32 0 26 0;
#X connect 33 0 34 0;
#X connect 34 0 35 0;
#X connect 36 0 37 0;
#X connect 37 0 38 0;
#X connect 38 0 39 0;
#X connect 39 0 34 0;
#X connect 40 0 33 0;
#X connect 41 0 121 0;
#X connect 43 0 44 0;
#X connect 44 0 45 0;
#X connect 45 0 46 0;
#X connect 46 0 121 0;
#X connect 47 0 41 0;
#X connect 48 0 122 0;
#X connect 50 0 51 0;
#X connect 51 0 52 0;
#X connect 52 0 53 0;
#X connect 53 0 122 0;
#X connect 54 0 48 0;
#X connect 55 0 56 0;
#X connect 56 0 57 0;
#X connect 58 0 59 0;
#X connect 59 0 60 0;
#X connect 60 0 61 0;
#X connect 61 0 56 0;
#X connect 62 0 55 0;
#X connect 63 0 123 0;
#X connect 65 0 66 0;
#X connect 66 0 67 0;
#X connect 67 0 68 0;
#X connect 68 0 123 0;
#X connect 69 0 63 0;
#X connect 70 0 124 0;
#X connect 72 0 73 0;
#X connect 73 0 74 0;
#X connect 74 0 75 0;
#X connect 75 0 124 0;
#X connect 76 0 70 0;
#X connect 77 0 125 0;
#X connect 79 0 80 0;
#X connect 80 0 81 0;
#X connect 81 0 82 0;
#X connect 82 0 125 0;
#X connect 83 0 77 0;
#X connect 84 0 126 0;
#X connect 86 0 87 0;
#X connect 87 0 88 0;
#X connect 88 0 89 0;
#X connect 89 0 126 0;
#X connect 90 0 84 0;
#X connect 91 0 127 0;
#X connect 93 0 94 0;
#X connect 94 0 95 0;
#X connect 95 0 96 0;
#X connect 96 0 127 0;
#X connect 97 0 91 0;
#X connect 98 0 128 0;
#X connect 100 0 101 0;
#X connect 101 0 102 0;
#X connect 102 0 103 0;
#X connect 103 0 128 0;
#X connect 104 0 98 0;
#X connect 105 0 106 0;
#X connect 106 0 107 0;
#X connect 108 0 109 0;
#X connect 109 0 110 0;
#X connect 110 0 111 0;
#X connect 111 0 106 0;
#X connect 112 0 105 0;
#X connect 113 0 114 0;
#X connect 114 0 133 0;
#X connect 116 0 117 0;
#X connect 118 0 7 0;
#X connect 119 0 20 0;
#X connect 120 0 27 0;
#X connect 121 0 42 0;
#X connect 122 0 49 0;
#X connect 123 0 64 0;
#X connect 124 0 71 0;
#X connect 125 0 78 0;
#X connect 126 0 85 0;
#X connect 127 0 92 0;
#X connect 128 0 99 0;
#X connect 129 0 130 0;
#X connect 131 0 132 0;
#X connect 133 0 115 0;
#X connect 136 0 137 0;
#X coords 0 -1 1 1 100 100 1 100 100;
