#N canvas 0 0 1920 1048 12;
#X obj 72 158 env~;
#X obj 72 183 - 100;
#X obj 72 208 vu 20 200 empty empty -1 -10 0 12 #404040 #000000 1 0;
#X obj 154 225 *~ 0.5;
#X obj 154 266 throw~ left;
#X obj 252 266 throw~ right;
#X obj 313 217 sigmund~;
#X floatatom 366 253 5 0 0 0 - - - 0;
#X obj 366 302 tgl 20 0 empty empty empty 0 -10 0 12 #fcfcfc #000000 #000000 0 1;
#X obj 366 327 change;
#X obj 366 352 bng 20 250 50 0 empty empty empty 0 -10 0 12 #fcfcfc #000000 #000000;
#X obj 366 377 s trigger;
#X obj 515 126 r trigger;
#X floatatom 555 178 5 0 0 0 - - - 0;
#X obj 509 451 samphold~;
#X obj 509 476 lop~ 10000;
#X obj 509 526 *~ 0.85;
#X obj 509 551 exp~ tanh($v1);
#X obj 509 576 *~ -1;
#X obj 480 621 throw~ left;
#X obj 570 252 r trigger;
#X obj 570 302 + 30;
#X floatatom 570 327 5 0 0 0 - - - 0;
#X obj 570 351 mtof;
#X floatatom 570 376 5 0 0 0 - - - 0;
#X obj 570 400 phasor~;
#X obj 733 124 r trigger;
#X floatatom 773 176 5 0 0 0 - - - 0;
#X obj 727 449 samphold~;
#X obj 727 474 lop~ 10000;
#X obj 727 524 *~ 0.85;
#X obj 727 549 exp~ tanh($v1);
#X obj 727 574 *~ -1;
#X obj 788 398 phasor~;
#X obj 788 355 + 10;
#X obj 822 300 r trigger;
#X obj 698 619 throw~ right;
#X obj 970 79 catch~ left;
#X obj 970 104 env~;
#X obj 970 129 - 100;
#X obj 970 154 vu 20 200 empty empty -1 -10 0 12 #404040 #000000 1 0;
#X obj 1144 106 env~;
#X obj 1144 131 - 100;
#X obj 1144 156 vu 20 200 empty empty -1 -10 0 12 #404040 #000000 1 0;
#X obj 1144 81 catch~ right;
#X obj 893 566 osc~ 200;
#X obj 892 671 *~;
#X obj 992 529 r trigger;
#X obj 1044 557 delay 50;
#X msg 992 563 0 50;
#X obj 991 640 line~;
#X obj 879 703 throw~ left;
#X obj 977 705 throw~ right;
#X obj 366 277 > 90;
#X obj 71 79 inlet~;
#X obj 1063 130 outlet~;
#X obj 509 501 hip~ 60;
#X obj 727 499 hip~ 60;
#X obj 174 122 delwrite~ delbuff 450;
#X obj 515 151 random 450;
#X obj 733 149 random 450;
#X obj 509 206 delread~ delbuff 450;
#X obj 727 204 delread~ delbuff 450;
#X obj 570 277 random 98;
#X obj 822 325 random 100;
#X msg 1045 589 0.05 10000;
#X obj 100 46 catch~ fedback;
#X obj 563 621 throw~ fedback;
#X obj 1085 706 throw~ fedback;
#X connect 0 0 1 0;
#X connect 1 0 2 0;
#X connect 3 0 4 0;
#X connect 3 0 5 0;
#X connect 6 1 7 0;
#X connect 7 0 53 0;
#X connect 8 0 9 0;
#X connect 9 0 10 0;
#X connect 10 0 11 0;
#X connect 12 0 59 0;
#X connect 14 0 15 0;
#X connect 15 0 56 0;
#X connect 16 0 17 0;
#X connect 17 0 18 0;
#X connect 18 0 19 0;
#X connect 20 0 63 0;
#X connect 21 0 22 0;
#X connect 22 0 23 0;
#X connect 23 0 24 0;
#X connect 24 0 25 0;
#X connect 24 0 34 0;
#X connect 25 0 14 1;
#X connect 26 0 60 0;
#X connect 28 0 29 0;
#X connect 29 0 57 0;
#X connect 30 0 31 0;
#X connect 31 0 32 0;
#X connect 32 0 36 0;
#X connect 33 0 28 1;
#X connect 34 0 33 0;
#X connect 35 0 64 0;
#X connect 37 0 38 0;
#X connect 37 0 55 0;
#X connect 38 0 39 0;
#X connect 39 0 40 0;
#X connect 41 0 42 0;
#X connect 42 0 43 0;
#X connect 44 0 41 0;
#X connect 44 0 55 0;
#X connect 45 0 46 0;
#X connect 46 0 51 0;
#X connect 46 0 52 0;
#X connect 46 0 68 0;
#X connect 47 0 49 0;
#X connect 47 0 48 0;
#X connect 48 0 65 0;
#X connect 49 0 50 0;
#X connect 50 0 46 1;
#X connect 53 0 8 0;
#X connect 54 0 6 0;
#X connect 54 0 3 0;
#X connect 54 0 0 0;
#X connect 54 0 58 0;
#X connect 56 0 16 0;
#X connect 57 0 30 0;
#X connect 59 0 13 0;
#X connect 59 0 61 0;
#X connect 60 0 27 0;
#X connect 60 0 62 0;
#X connect 61 0 14 0;
#X connect 62 0 28 0;
#X connect 63 0 21 0;
#X connect 64 0 34 1;
#X connect 65 0 50 0;
#X connect 66 0 58 0;
