#N canvas 0 0 632 1009 12;
#X obj 191 570 bob~, f 17;
#X obj 347 403 hsl 170 20 0 8 0 0 empty empty resonance -2 -10 0 12 #fcfcfc #000000 #000000 0 1;
#X floatatom 349 444 5 0 0 0 - - - 0;
#X obj 349 473 sig~;
#X obj 147 403 hsl 170 20 60 5000 0 0 empty empty cutoff\ freq -2 -10 0 12 #fcfcfc #000000 #000000 0 1;
#X floatatom 149 444 5 0 0 0 - - - 0;
#X obj 149 479 pack f 50;
#X obj 149 515 line~;
#X connect 1 0 2 0;
#X connect 2 0 3 0;
#X connect 3 0 0 2;
#X connect 4 0 5 0;
#X connect 5 0 6 0;
#X connect 6 0 7 0;
#X connect 7 0 0 1;
