#N canvas 1442 5 469 1009 12;
#X obj 41 619 freeverb~, f 12;
#X obj 322 269 hsl 170 20 0.11 1.1 0 0 empty empty empty -2 -10 0 12 #fcfcfc #000000 #000000 0 1;
#X msg 318 296 roomsize \$1;
#X floatatom 359 247 5 0 0 0 - - - 0;
#X obj 319 360 hsl 170 20 0 1 0 0 empty empty empty -2 -10 0 12 #fcfcfc #000000 #000000 0 1;
#X floatatom 381 340 5 0 0 0 - - - 0;
#X msg 316 385 wet \$1;
#X obj 313 438 hsl 170 20 0 1 0 0 empty empty empty -2 -10 0 12 #fcfcfc #000000 #000000 0 1;
#X floatatom 360 420 5 0 0 0 - - - 0;
#X msg 311 467 dry \$1;
#X obj 324 516 hsl 170 20 0.11 1.1 0 0 empty empty empty -2 -10 0 12 #fcfcfc #000000 #000000 0 1;
#X floatatom 363 494 5 0 0 0 - - - 0;
#X msg 317 544 damping \$1;
#X obj 286 566 tgl 20 0 empty empty empty 0 -10 0 12 #fcfcfc #000000 #000000 0 1;
#X msg 287 594 freeze \$1;
#X obj 213 761 outlet~;
#X obj 108 730 outlet~;
#X connect 0 0 16 0;
#X connect 0 1 15 0;
#X connect 1 0 2 0;
#X connect 1 0 3 0;
#X connect 2 0 0 0;
#X connect 4 0 6 0;
#X connect 4 0 5 0;
#X connect 6 0 0 0;
#X connect 7 0 9 0;
#X connect 7 0 8 0;
#X connect 9 0 0 0;
#X connect 10 0 12 0;
#X connect 10 0 11 0;
#X connect 12 0 0 0;
#X connect 13 0 14 0;
#X connect 14 0 0 0;
#X coords 0 -1 1 1 300 300 1 100 100;
