#N canvas 482 845 472 1009 12;
#X obj 218 421 delread4~ tapedelay;
#X obj 69 605 output~;
#X obj 223 390 line~;
#X msg 222 354 \$1 100;
#X floatatom 223 327 5 0 0 0 - - - 0;
#X obj 202 177 r~ feedback;
#X obj 202 205 delwrite~ tapedelay 2000;
#X obj 223 457 lop~ 8000;
#X obj 223 489 lop~ 8000;
#X obj 218 522 hip~ 300;
#X floatatom 297 486 5 0 0 0 - - - 0;
#X floatatom 292 549 5 0 0 0 - - - 0;
#X obj 226 577 *~;
#X floatatom 262 577 5 0 0 0 - - - 0;
#X obj 236 616 s~ feedback;
#X floatatom 66 474 5 0 0 0 - - - 0;
#X floatatom 130 469 5 0 0 0 - - - 0;
#X obj 64 521 *~;
#X obj 130 525 *~;
#X text 75 455 dry;
#X text 133 447 wet;
#X obj 69 223 osc~ 200;
#X obj 299 455 hsl 170 20 0 8000 0 0 empty empty empty -2 -10 0 12 #fcfcfc #000000 #000000 0 1;
#X obj 295 520 hsl 170 20 0 300 0 0 empty empty empty -2 -10 0 12 #fcfcfc #000000 #000000 0 1;
#X obj 268 327 hsl 170 20 0 1000 0 0 empty empty empty -2 -10 0 12 #fcfcfc #000000 #000000 0 1;
#X obj 132 423 hsl 50 20 0 1 0 0 empty empty empty -2 -10 0 10 #fcfcfc #000000 #000000 0 1;
#X obj 308 577 hsl 50 20 0 1 0 0 empty empty empty -2 -10 0 12 #fcfcfc #000000 #000000 0 1;
#X connect 0 0 7 0;
#X connect 0 0 18 0;
#X connect 2 0 0 0;
#X connect 3 0 2 0;
#X connect 4 0 3 0;
#X connect 5 0 6 0;
#X connect 7 0 8 0;
#X connect 8 0 9 0;
#X connect 9 0 12 0;
#X connect 10 0 7 1;
#X connect 10 0 8 1;
#X connect 11 0 9 1;
#X connect 12 0 14 0;
#X connect 13 0 12 1;
#X connect 15 0 17 1;
#X connect 16 0 18 1;
#X connect 17 0 1 0;
#X connect 17 0 1 1;
#X connect 18 0 1 0;
#X connect 18 0 1 1;
#X connect 21 0 6 0;
#X connect 21 0 17 0;
#X connect 22 0 10 0;
#X connect 23 0 11 0;
#X connect 24 0 4 0;
#X connect 25 0 16 0;
#X connect 26 0 13 0;
